<svg height="484pt" viewBox="0 -11 484.65 484" width="484pt" xmlns="http://www.w3.org/2000/svg"><path d="m338.800781 283.796875h56.289063c16.570312 0 30 13.429687 30 30v118.527344c0 16.570312-13.429688 30-30 30h-225.660156c-16.566407 0-30-13.429688-30-30v-118.527344c0-16.570313 13.433593-30 30-30zm37.308594 94.917969v-17.101563c0-7.730469-6.265625-14-14-14h-5.917969c-7.734375 0-14 6.269531-14 14v17.101563zm-59.929687 33v-5.929688h-67.839844v5.929688c.003906 15.464844 12.539062 27.996094 28 28h11.839844c15.464843 0 28-12.535156 28-28zm-93.851563-33v-17.101563c0-7.730469-6.265625-14-14-14h-5.917969c-7.730468 0-14 6.269531-14 14v17.101563zm0 0" fill="#f8ec7d"/><path d="m376.109375 361.613281v17.101563h-33.917969v-17.101563c0-7.730469 6.265625-14 14-14h5.917969c7.734375 0 14 6.269531 14 14zm0 0" fill="#e48e66"/><path d="m341.039062 28.425781v151.6875c.003907 15.523438-12.578124 28.105469-28.097656 28.113281h-194.261718c-19.5 0-28.199219 10.570313-32.339844 22.277344-4.140625 11.710938-3.730469 24.582032-5.011719 29.160156-.167969.609376-.359375.832032-.539063.53125 0 0-25.238281-7.980468-31.617187-44.140624-.902344-4.589844-4.953125-7.882813-9.632813-7.828126h-11.4375c-15.523437-.007812-28.101562-12.589843-28.101562-28.113281v-151.6875c0-15.519531 12.582031-28.101562 28.101562-28.101562h284.839844c15.519532 0 28.097656 12.582031 28.097656 28.101562zm0 0" fill="#6fe3ff"/><path d="m316.179688 405.785156v5.929688c0 15.464844-12.535157 28-28 28h-11.839844c-15.460938-.003906-27.996094-12.535156-28-28v-5.929688zm0 0" fill="#e48e66"/><path d="m222.328125 361.613281v17.101563h-33.917969v-17.101563c0-7.730469 6.269532-14 14-14h5.917969c7.734375 0 14 6.269531 14 14zm0 0" fill="#e48e66"/><g fill="#2561a1"><path d="m305.910156 131.554688h-72.011718c-3.3125 0-6-2.6875-6-6s2.6875-6 6-6h72.011718c3.3125 0 6 2.6875 6 6s-2.6875 6-6 6zm0 0"/><path d="m199.890625 131.554688h-113.5c-3.3125 0-6-2.6875-6-6s2.6875-6 6-6h113.5c3.3125 0 6 2.6875 6 6s-2.6875 6-6 6zm0 0"/><path d="m59.898438 131.554688h-24.769532c-3.3125 0-6-2.6875-6-6s2.6875-6 6-6h24.769532c3.316406 0 6 2.6875 6 6s-2.683594 6-6 6zm0 0"/><path d="m305.910156 96.425781h-18.800781c-3.3125 0-6-2.6875-6-6 0-3.316406 2.6875-6 6-6h18.800781c3.3125 0 6 2.683594 6 6 0 3.3125-2.6875 6-6 6zm0 0"/><path d="m260.78125 96.425781h-31.480469c-3.316406 0-6-2.6875-6-6 0-3.316406 2.683594-6 6-6h31.480469c3.3125 0 6 2.683594 6 6 0 3.3125-2.6875 6-6 6zm0 0"/><path d="m202.761719 96.425781h-167.632813c-3.3125 0-6-2.6875-6-6 0-3.316406 2.6875-6 6-6h167.632813c3.3125 0 6 2.683594 6 6 0 3.3125-2.6875 6-6 6zm0 0"/><path d="m305.910156 54.273438h-15.199218c-3.316407 0-6-2.683594-6-6 0-3.3125 2.683593-6 6-6h15.199218c3.3125 0 6 2.6875 6 6 0 3.316406-2.6875 6-6 6zm0 0"/><path d="m264.03125 54.273438h-65.121094c-3.3125 0-6-2.683594-6-6 0-3.3125 2.6875-6 6-6h65.121094c3.3125 0 6 2.6875 6 6 0 3.316406-2.6875 6-6 6zm0 0"/><path d="m172.371094 54.273438h-137.242188c-3.3125 0-6-2.683594-6-6 0-3.3125 2.6875-6 6-6h137.242188c3.3125 0 6 2.6875 6 6 0 3.316406-2.6875 6-6 6zm0 0"/><path d="m235.699219 166.683594h-2.910157c-3.3125 0-6-2.683594-6-6 0-3.3125 2.6875-6 6-6h2.910157c3.316406 0 6 2.6875 6 6 0 3.316406-2.683594 6-6 6zm0 0"/><path d="m208.421875 166.683594h-52.03125c-3.3125 0-6-2.683594-6-6 0-3.3125 2.6875-6 6-6h52.03125c3.3125 0 6 2.6875 6 6 0 3.316406-2.6875 6-6 6zm0 0"/><path d="m123.210938 166.683594h-88.082032c-3.3125 0-6-2.683594-6-6 0-3.3125 2.6875-6 6-6h88.082032c3.3125 0 6 2.6875 6 6 0 3.316406-2.6875 6-6 6zm0 0"/></g><path d="m445.871094 280.09375h12v52.542969h-12zm0 0" fill="#f8ec7d"/><path d="m281.898438 255.925781c-3.3125 0-6-2.6875-6-6v-24.871093c0-3.3125 2.6875-6 6-6 3.316406 0 6 2.6875 6 6v24.871093c0 3.3125-2.683594 6-6 6zm0 0" fill="#f8ec7d"/><path d="m451.871094 216.324219c-18.105469 0-32.78125 14.675781-32.78125 32.78125 0 18.101562 14.675781 32.78125 32.78125 32.78125 18.101562 0 32.777344-14.679688 32.777344-32.78125-.019532-18.097657-14.683594-32.761719-32.777344-32.78125zm0 0" fill="#6fe3ff"/><path d="m338.800781 258.414062v25.382813h-113.070312v-25.382813c-.003907-2.25.890625-4.410156 2.480469-6 1.589843-1.59375 3.75-2.488281 6-2.488281h96.109374c4.6875.003907 8.480469 3.804688 8.480469 8.488281zm0 0" fill="#e48e66"/><path d="m425.089844 319.496094c29.582031 0 53.558594 23.980468 53.558594 53.558594 0 29.582031-23.976563 53.558593-53.558594 53.558593zm0 0" fill="#e48e66"/></svg>